<?xml version="1.0" encoding="UTF-8"?>
<!DOCTYPE svg PUBLIC "-//W3C//DTD SVG 1.1//EN" "http://www.w3.org/Graphics/SVG/1.1/DTD/svg11.dtd">
<svg xmlns="http://www.w3.org/2000/svg" version="1.1" width="512px" height="512px" style="shape-rendering:geometricPrecision; text-rendering:geometricPrecision; image-rendering:optimizeQuality; fill-rule:evenodd; clip-rule:evenodd" xmlns:xlink="http://www.w3.org/1999/xlink">
<g><path style="opacity:0.966" fill="#000000" d="M 209.5,104.5 C 266.501,104.333 323.501,104.5 380.5,105C 395.333,107.833 404.167,116.667 407,131.5C 407.667,188.5 407.667,245.5 407,302.5C 404.384,314.934 397.217,323.434 385.5,328C 366.221,329.45 346.888,329.95 327.5,329.5C 327.949,348.555 327.449,367.555 326,386.5C 322.833,395.667 316.667,401.833 307.5,405C 247.211,406.651 186.878,406.985 126.5,406C 113.667,403.167 105.833,395.333 103,382.5C 102.333,323.167 102.333,263.833 103,204.5C 105.233,193.934 111.4,186.768 121.5,183C 141.779,181.548 162.113,181.048 182.5,181.5C 182.333,164.83 182.5,148.163 183,131.5C 186.348,116.986 195.181,107.986 209.5,104.5 Z M 214.5,126.5 C 268.168,126.333 321.834,126.5 375.5,127C 379.091,127.579 381.924,129.412 384,132.5C 385.65,187.788 385.983,243.122 385,298.5C 384.071,303.219 381.237,306.052 376.5,307C 360.17,307.5 343.837,307.667 327.5,307.5C 327.667,273.498 327.5,239.498 327,205.5C 324.606,192.772 317.106,184.939 304.5,182C 271.168,181.5 237.835,181.333 204.5,181.5C 204.333,166.163 204.5,150.83 205,135.5C 206.462,130.548 209.629,127.548 214.5,126.5 Z M 130.5,203.5 C 186.834,203.333 243.168,203.5 299.5,204C 302.542,204.555 304.375,206.388 305,209.5C 305.169,265.737 305.669,321.904 306.5,378C 305.397,381.436 303.064,383.436 299.5,384C 243.5,384.667 187.5,384.667 131.5,384C 128.107,383.606 125.94,381.773 125,378.5C 124.333,322.167 124.333,265.833 125,209.5C 125.683,206.321 127.516,204.321 130.5,203.5 Z"/></g>
</svg>
