<?xml version="1.0" encoding="UTF-8"?>
<!DOCTYPE svg PUBLIC "-//W3C//DTD SVG 1.1//EN" "http://www.w3.org/Graphics/SVG/1.1/DTD/svg11.dtd">
<svg xmlns="http://www.w3.org/2000/svg" version="1.1" width="512px" height="512px" style="shape-rendering:geometricPrecision; text-rendering:geometricPrecision; image-rendering:optimizeQuality; fill-rule:evenodd; clip-rule:evenodd" xmlns:xlink="http://www.w3.org/1999/xlink">
<g><path style="opacity:0.991" fill="#303f9d" d="M 233.5,-0.5 C 248.167,-0.5 262.833,-0.5 277.5,-0.5C 377.805,11.9821 449.305,63.9821 492,155.5C 502.297,180.687 508.797,206.687 511.5,233.5C 511.5,248.167 511.5,262.833 511.5,277.5C 510.397,288.653 508.397,299.653 505.5,310.5C 486.218,289.55 466.218,269.217 445.5,249.5C 445.082,248.778 444.416,248.278 443.5,248C 435.435,247.038 427.435,245.705 419.5,244C 415.627,236.421 411.627,228.921 407.5,221.5C 406.702,221.957 406.369,222.624 406.5,223.5C 403.898,227.706 401.564,232.039 399.5,236.5C 399.657,235.127 399.49,233.793 399,232.5C 364.583,197.582 329.75,163.248 294.5,129.5C 281.772,126.559 268.772,124.393 255.5,123C 249.598,111.36 243.598,99.86 237.5,88.5C 237.19,87.2617 236.69,87.2617 236,88.5C 230.772,99.9557 225.272,111.289 219.5,122.5C 211.817,123.837 204.15,125.17 196.5,126.5C 196.611,125.883 196.944,125.383 197.5,125C 184.632,111.965 171.632,99.1314 158.5,86.5C 100.818,121.144 68.3177,172.144 61,239.5C 57.6015,291.124 71.7682,337.124 103.5,377.5C 113.36,389.605 124.36,400.605 136.5,410.5C 168.127,443.633 200.627,476.633 234,509.5C 234.464,510.094 234.631,510.761 234.5,511.5C 234.167,511.5 233.833,511.5 233.5,511.5C 133.195,499.018 61.6947,447.018 19,355.5C 8.70332,330.313 2.20332,304.313 -0.5,277.5C -0.5,262.833 -0.5,248.167 -0.5,233.5C 11.9821,133.195 63.9821,61.6947 155.5,19C 180.687,8.70332 206.687,2.20332 233.5,-0.5 Z"/></g>
<g><path style="opacity:1" fill="#283592" d="M 158.5,86.5 C 171.632,99.1314 184.632,111.965 197.5,125C 196.944,125.383 196.611,125.883 196.5,126.5C 190.668,126.666 185.001,127.666 179.5,129.5C 188.819,138.319 197.986,147.319 207,156.5C 205.718,169.199 203.885,181.866 201.5,194.5C 201.833,195.167 202.167,195.833 202.5,196.5C 214.063,190.219 225.73,184.219 237.5,178.5C 248.772,184.471 260.105,190.471 271.5,196.5C 271.833,195.333 272.167,194.167 272.5,193C 270.385,180.817 268.552,168.651 267,156.5C 276.531,147.828 285.698,138.828 294.5,129.5C 329.75,163.248 364.583,197.582 399,232.5C 399.49,233.793 399.657,235.127 399.5,236.5C 398.771,239.626 397.271,242.293 395,244.5C 386.425,245.716 377.925,247.216 369.5,249C 375.969,254.468 382.136,260.301 388,266.5C 387.096,273.974 385.929,281.474 384.5,289C 384.833,290.167 385.167,291.333 385.5,292.5C 392.369,288.566 399.369,284.899 406.5,281.5C 414.715,284.941 422.715,288.941 430.5,293.5C 430.067,284.889 428.734,276.222 426.5,267.5C 432.827,261.506 439.161,255.506 445.5,249.5C 466.218,269.217 486.218,289.55 505.5,310.5C 485.28,395.558 435.28,456.058 355.5,492C 330.621,502.136 304.954,508.636 278.5,511.5C 263.833,511.5 249.167,511.5 234.5,511.5C 234.631,510.761 234.464,510.094 234,509.5C 200.627,476.633 168.127,443.633 136.5,410.5C 197.283,453.967 262.616,462.134 332.5,435C 371.801,417.53 402.467,390.363 424.5,353.5C 424.167,353.167 423.833,352.833 423.5,352.5C 366.872,382.39 308.872,385.223 249.5,361C 220.642,347.64 195.975,328.807 175.5,304.5C 138.799,255.182 126.299,200.182 138,139.5C 142.627,120.923 149.461,103.256 158.5,86.5 Z"/></g>
<g><path style="opacity:1" fill="#fcd402" d="M 158.5,86.5 C 149.461,103.256 142.627,120.923 138,139.5C 126.299,200.182 138.799,255.182 175.5,304.5C 152.217,329.45 128.217,353.783 103.5,377.5C 71.7682,337.124 57.6015,291.124 61,239.5C 68.3177,172.144 100.818,121.144 158.5,86.5 Z"/></g>
<g><path style="opacity:1" fill="#e4e4e5" d="M 237.5,88.5 C 243.598,99.86 249.598,111.36 255.5,123C 268.772,124.393 281.772,126.559 294.5,129.5C 285.698,138.828 276.531,147.828 267,156.5C 268.552,168.651 270.385,180.817 272.5,193C 272.167,194.167 271.833,195.333 271.5,196.5C 260.105,190.471 248.772,184.471 237.5,178.5C 237.5,148.5 237.5,118.5 237.5,88.5 Z"/></g>
<g><path style="opacity:1" fill="#fcfcfd" d="M 237.5,88.5 C 237.5,118.5 237.5,148.5 237.5,178.5C 225.73,184.219 214.063,190.219 202.5,196.5C 202.167,195.833 201.833,195.167 201.5,194.5C 203.885,181.866 205.718,169.199 207,156.5C 197.986,147.319 188.819,138.319 179.5,129.5C 185.001,127.666 190.668,126.666 196.5,126.5C 204.15,125.17 211.817,123.837 219.5,122.5C 225.272,111.289 230.772,99.9557 236,88.5C 236.69,87.2617 237.19,87.2617 237.5,88.5 Z"/></g>
<g><path style="opacity:1" fill="#e2e3e4" d="M 445.5,249.5 C 439.161,255.506 432.827,261.506 426.5,267.5C 428.734,276.222 430.067,284.889 430.5,293.5C 422.715,288.941 414.715,284.941 406.5,281.5C 407.825,262.069 407.825,242.736 406.5,223.5C 406.369,222.624 406.702,221.957 407.5,221.5C 411.627,228.921 415.627,236.421 419.5,244C 427.435,245.705 435.435,247.038 443.5,248C 444.416,248.278 445.082,248.778 445.5,249.5 Z"/></g>
<g><path style="opacity:1" fill="#fbfbfd" d="M 406.5,223.5 C 407.825,242.736 407.825,262.069 406.5,281.5C 399.369,284.899 392.369,288.566 385.5,292.5C 385.167,291.333 384.833,290.167 384.5,289C 385.929,281.474 387.096,273.974 388,266.5C 382.136,260.301 375.969,254.468 369.5,249C 377.925,247.216 386.425,245.716 395,244.5C 397.271,242.293 398.771,239.626 399.5,236.5C 401.564,232.039 403.898,227.706 406.5,223.5 Z"/></g>
<g><path style="opacity:1" fill="#e2e2e4" d="M 265.5,268.5 C 268.392,273.28 271.059,278.28 273.5,283.5C 279.802,284.805 286.135,285.972 292.5,287C 288.333,291.167 284.167,295.333 280,299.5C 279.959,305.925 280.792,312.258 282.5,318.5C 282.167,318.833 281.833,319.167 281.5,319.5C 275.78,316.979 270.447,313.979 265.5,310.5C 265.5,296.5 265.5,282.5 265.5,268.5 Z"/></g>
<g><path style="opacity:1" fill="#f8f9fb" d="M 265.5,268.5 C 265.5,282.5 265.5,296.5 265.5,310.5C 260.22,313.14 254.886,315.807 249.5,318.5C 249.167,317.333 248.833,316.167 248.5,315C 249.609,309.858 250.109,304.692 250,299.5C 245.833,295.333 241.667,291.167 237.5,287C 243.865,285.972 250.198,284.805 256.5,283.5C 259,278.5 261.5,273.5 264,268.5C 264.69,267.262 265.19,267.262 265.5,268.5 Z"/></g>
<g><path style="opacity:1" fill="#f9be2d" d="M 175.5,304.5 C 195.975,328.807 220.642,347.64 249.5,361C 308.872,385.223 366.872,382.39 423.5,352.5C 423.833,352.833 424.167,353.167 424.5,353.5C 402.467,390.363 371.801,417.53 332.5,435C 262.616,462.134 197.283,453.967 136.5,410.5C 124.36,400.605 113.36,389.605 103.5,377.5C 128.217,353.783 152.217,329.45 175.5,304.5 Z"/></g>
</svg>
