<?xml version="1.0" encoding="UTF-8"?>
<!DOCTYPE svg PUBLIC "-//W3C//DTD SVG 1.1//EN" "http://www.w3.org/Graphics/SVG/1.1/DTD/svg11.dtd">
<svg xmlns="http://www.w3.org/2000/svg" version="1.1" width="512px" height="512px" style="shape-rendering:geometricPrecision; text-rendering:geometricPrecision; image-rendering:optimizeQuality; fill-rule:evenodd; clip-rule:evenodd" xmlns:xlink="http://www.w3.org/1999/xlink">
<g><path style="opacity:0.975" fill="#020104" d="M 98.5,-0.5 C 203.167,-0.5 307.833,-0.5 412.5,-0.5C 462.499,10.3408 489.666,41.3408 494,92.5C 494.667,201.167 494.667,309.833 494,418.5C 489.666,469.659 462.499,500.659 412.5,511.5C 307.833,511.5 203.167,511.5 98.5,511.5C 48.5008,500.659 21.3341,469.659 17,418.5C 16.3333,309.833 16.3333,201.167 17,92.5C 21.3341,41.3408 48.5008,10.3408 98.5,-0.5 Z M 104.5,43.5 C 205.167,43.3333 305.834,43.5 406.5,44C 430,48.8333 444.167,63 449,86.5C 449.667,199.167 449.667,311.833 449,424.5C 444.158,448.009 429.991,462.176 406.5,467C 305.833,467.667 205.167,467.667 104.5,467C 81,462.167 66.8333,448 62,424.5C 61.3333,311.833 61.3333,199.167 62,86.5C 67.0138,62.9868 81.1804,48.6535 104.5,43.5 Z"/></g>
</svg>
