<?xml version="1.0" encoding="UTF-8"?>
<!DOCTYPE svg PUBLIC "-//W3C//DTD SVG 1.1//EN" "http://www.w3.org/Graphics/SVG/1.1/DTD/svg11.dtd">
<svg xmlns="http://www.w3.org/2000/svg" version="1.1" width="512px" height="512px" style="shape-rendering:geometricPrecision; text-rendering:geometricPrecision; image-rendering:optimizeQuality; fill-rule:evenodd; clip-rule:evenodd" xmlns:xlink="http://www.w3.org/1999/xlink">
<g><path style="opacity:0.972" fill="#000000" d="M 77.5,169.5 C 84.9434,168.593 91.6101,170.427 97.5,175C 113.121,201.299 132.454,224.632 155.5,245C 213.928,293.222 275.262,297.222 339.5,257C 356.154,245.356 371.321,231.856 385,216.5C 395.549,203.619 405.716,190.452 415.5,177C 428.577,170.29 439.41,172.79 448,184.5C 451.785,193.681 450.785,202.348 445,210.5C 441.305,215.362 437.805,220.362 434.5,225.5C 445.176,238.007 456.009,250.34 467,262.5C 473.088,277.815 468.588,288.649 453.5,295C 447.114,296.209 441.114,295.209 435.5,292C 425.288,281.291 415.288,270.458 405.5,259.5C 393.575,271.118 380.908,281.784 367.5,291.5C 376.936,308.707 386.103,326.04 395,343.5C 397.303,363.392 388.47,372.559 368.5,371C 363.259,369.761 359.092,366.928 356,362.5C 347.413,345.65 338.08,329.316 328,313.5C 312.045,320.096 295.545,324.763 278.5,327.5C 277.959,344.889 277.126,362.223 276,379.5C 269.739,390.146 260.572,393.979 248.5,391C 241.572,388.406 237.072,383.573 235,376.5C 234.5,359.837 234.333,343.17 234.5,326.5C 228.432,326.211 222.432,325.378 216.5,324C 204.939,321.031 193.606,317.698 182.5,314C 173.873,329.42 165.373,344.92 157,360.5C 148.59,371.56 138.09,374.06 125.5,368C 116.198,360.29 113.698,350.79 118,339.5C 127.26,323.305 135.927,306.971 144,290.5C 130.781,280.954 118.448,270.288 107,258.5C 98.3333,268.5 89.6667,278.5 81,288.5C 69.0373,299.43 57.3707,299.097 46,287.5C 41.728,279.349 41.3947,271.016 45,262.5C 55.6461,249.686 66.4794,237.02 77.5,224.5C 69.1815,214.53 63.5149,203.196 60.5,190.5C 61.6947,179.731 67.3614,172.731 77.5,169.5 Z"/></g>
</svg>
