<?xml version="1.0" encoding="UTF-8"?>
<!DOCTYPE svg PUBLIC "-//W3C//DTD SVG 1.1//EN" "http://www.w3.org/Graphics/SVG/1.1/DTD/svg11.dtd">
<svg xmlns="http://www.w3.org/2000/svg" version="1.1" width="512px" height="512px" style="shape-rendering:geometricPrecision; text-rendering:geometricPrecision; image-rendering:optimizeQuality; fill-rule:evenodd; clip-rule:evenodd" xmlns:xlink="http://www.w3.org/1999/xlink">
<g><path style="opacity:0.988" fill="#f9a31b" d="M 217.5,-0.5 C 218.5,-0.5 219.5,-0.5 220.5,-0.5C 221.334,7.14858 222.334,14.8152 223.5,22.5C 224.329,29.4942 227.995,34.3275 234.5,37C 243.344,39.2977 252.344,40.4643 261.5,40.5C 261.5,41.5 261.5,42.5 261.5,43.5C 253.429,43.6375 245.429,44.4708 237.5,46C 229.667,47.8333 224.833,52.6667 223,60.5C 221.471,68.429 220.638,76.429 220.5,84.5C 219.5,84.5 218.5,84.5 217.5,84.5C 217.362,76.429 216.529,68.429 215,60.5C 212.875,51.8505 207.375,47.0172 198.5,46C 191.199,44.8366 183.866,44.0033 176.5,43.5C 176.5,42.5 176.5,41.5 176.5,40.5C 186.389,40.371 196.056,38.871 205.5,36C 210.177,33.4888 213.177,29.6554 214.5,24.5C 215.557,16.1284 216.557,7.79503 217.5,-0.5 Z"/></g>
<g><path style="opacity:0.996" fill="#314dc8" d="M 368.5,48.5 C 368.631,49.3764 368.298,50.0431 367.5,50.5C 365.358,51.6005 363.192,52.6005 361,53.5C 360.333,54.5 360.333,55.5 361,56.5C 368.833,59 374,64.1667 376.5,72C 377.5,72.6667 378.5,72.6667 379.5,72C 380.822,67.6894 383.155,64.0227 386.5,61C 387.448,60.5172 388.448,60.3505 389.5,60.5C 450.986,102.411 487.486,160.411 499,234.5C 507.213,308.342 487.38,373.342 439.5,429.5C 436.259,426.656 434.426,422.99 434,418.5C 432.837,411.199 432.003,403.866 431.5,396.5C 430.5,396.5 429.5,396.5 428.5,396.5C 428.001,402.493 427.501,408.493 427,414.5C 426.167,428 419,435.167 405.5,436C 399.493,436.501 393.493,437.001 387.5,437.5C 387.5,438.5 387.5,439.5 387.5,440.5C 397.355,440.819 407.022,442.319 416.5,445C 418.324,445.66 419.657,446.827 420.5,448.5C 379.673,484.785 332.007,505.785 277.5,511.5C 262.833,511.5 248.167,511.5 233.5,511.5C 178.239,505.643 129.905,484.31 88.5,447.5C 90.5916,443.934 93.7583,441.601 98,440.5C 98.7494,439.365 98.5827,438.365 97.5,437.5C 95.1667,436.333 92.8333,435.167 90.5,434C 86.6875,430.153 83.5208,425.986 81,421.5C 78.732,425.049 76.232,428.383 73.5,431.5C 17.4255,366.538 -1.40779,291.872 17,207.5C 41.7888,118.711 97.9554,59.8779 185.5,31C 195.049,28.2572 204.715,26.0905 214.5,24.5C 213.177,29.6554 210.177,33.4888 205.5,36C 196.056,38.871 186.389,40.371 176.5,40.5C 176.5,41.5 176.5,42.5 176.5,43.5C 183.866,44.0033 191.199,44.8366 198.5,46C 207.375,47.0172 212.875,51.8505 215,60.5C 216.529,68.429 217.362,76.429 217.5,84.5C 218.5,84.5 219.5,84.5 220.5,84.5C 220.638,76.429 221.471,68.429 223,60.5C 224.833,52.6667 229.667,47.8333 237.5,46C 245.429,44.4708 253.429,43.6375 261.5,43.5C 261.5,42.5 261.5,41.5 261.5,40.5C 252.344,40.4643 243.344,39.2977 234.5,37C 227.995,34.3275 224.329,29.4942 223.5,22.5C 274.537,16.6161 322.87,25.2828 368.5,48.5 Z"/></g>
<g><path style="opacity:0.978" fill="#fbd20a" d="M 389.5,60.5 C 388.448,60.3505 387.448,60.5172 386.5,61C 383.155,64.0227 380.822,67.6894 379.5,72C 378.5,72.6667 377.5,72.6667 376.5,72C 374,64.1667 368.833,59 361,56.5C 360.333,55.5 360.333,54.5 361,53.5C 363.192,52.6005 365.358,51.6005 367.5,50.5C 368.298,50.0431 368.631,49.3764 368.5,48.5C 371.807,45.8995 374.14,42.5661 375.5,38.5C 377.045,37.5481 378.712,37.2148 380.5,37.5C 382.5,45.5 387.5,50.5 395.5,52.5C 395.785,54.288 395.452,55.9547 394.5,57.5C 392.402,57.9572 390.736,58.9572 389.5,60.5 Z"/></g>
<g><path style="opacity:1" fill="#f8c504" d="M 281.5,100.5 C 215.086,103.497 165.252,133.497 132,190.5C 101.37,253.877 105.37,314.877 144,373.5C 169.278,407.259 202.445,429.259 243.5,439.5C 235.73,446.097 228.063,452.93 220.5,460C 217.135,462.157 213.968,461.991 211,459.5C 206.044,448.623 200.711,437.956 195,427.5C 188.329,421.278 180.496,419.112 171.5,421C 161.354,424.721 151.021,427.388 140.5,429C 138.951,427.786 137.785,426.286 137,424.5C 136.667,413.5 136.333,402.5 136,391.5C 133.997,383.498 129.164,377.998 121.5,375C 110.197,373.17 98.8639,371.504 87.5,370C 83.2873,367.316 82.454,363.816 85,359.5C 88.5279,351.916 91.8612,344.249 95,336.5C 98.3883,325.673 95.8883,316.506 87.5,309C 79.1667,304 70.8333,299 62.5,294C 59.7104,291.79 58.877,288.956 60,285.5C 67.8082,277.603 75.8082,269.936 84,262.5C 89.908,253.154 89.908,243.821 84,234.5C 77.3553,226.703 71.8553,218.203 67.5,209C 67.6431,206.849 68.6431,205.182 70.5,204C 80.9848,200.728 91.3181,197.061 101.5,193C 109.228,188.379 112.895,181.546 112.5,172.5C 110.558,160.854 109.058,149.187 108,137.5C 109.863,135.051 112.363,134.051 115.5,134.5C 126.79,136.138 138.124,136.638 149.5,136C 156.909,133.592 162.076,128.758 165,121.5C 167.079,110.424 169.913,99.5902 173.5,89C 175.365,87.6986 177.365,87.3653 179.5,88C 189.605,93.7709 199.938,99.1042 210.5,104C 221.096,105.579 229.596,102.079 236,93.5C 241.117,86.0484 246.617,78.8817 252.5,72C 256.582,70.7069 259.749,71.8735 262,75.5C 268.026,84.2257 274.526,92.5591 281.5,100.5 Z"/></g>
<g><path style="opacity:1" fill="#fafafd" d="M 132.5,71.5 C 133.822,71.33 134.989,71.6634 136,72.5C 137.119,77.2391 139.619,81.0724 143.5,84C 146.533,85.1776 149.199,86.8442 151.5,89C 151.355,89.772 151.022,90.4387 150.5,91C 143,93.1667 138.167,98 136,105.5C 135.439,106.022 134.772,106.355 134,106.5C 131.844,104.199 130.178,101.533 129,98.5C 125.153,94.6875 120.986,91.5208 116.5,89C 121.085,86.4495 125.251,83.2828 129,79.5C 130.454,76.9289 131.62,74.2622 132.5,71.5 Z"/></g>
<g><path style="opacity:1" fill="#fdd304" d="M 243.5,439.5 C 202.445,429.259 169.278,407.259 144,373.5C 105.37,314.877 101.37,253.877 132,190.5C 165.252,133.497 215.086,103.497 281.5,100.5C 290.33,105.632 299.33,105.799 308.5,101C 316.004,96.4135 323.671,92.0801 331.5,88C 334.789,87.2536 337.289,88.4203 339,91.5C 341.333,101.5 343.667,111.5 346,121.5C 348.833,128.333 353.667,133.167 360.5,136C 371.876,136.638 383.21,136.138 394.5,134.5C 397.861,134.112 400.694,135.112 403,137.5C 401.576,148.799 400.076,160.132 398.5,171.5C 397.816,179.964 400.816,186.797 407.5,192C 418.012,196.393 428.678,200.393 439.5,204C 443.53,206.287 444.364,209.454 442,213.5C 434.85,222.647 428.516,232.313 423,242.5C 421.595,249.754 422.928,256.421 427,262.5C 434.697,270.531 442.697,278.198 451,285.5C 452.123,288.956 451.29,291.79 448.5,294C 440.5,298.667 432.5,303.333 424.5,308C 415.854,314.459 412.687,322.959 415,333.5C 418.724,343.281 422.724,352.948 427,362.5C 427.682,366.18 426.182,368.68 422.5,370C 412.134,371.087 401.801,372.421 391.5,374C 383.333,376.833 377.833,382.333 375,390.5C 374.667,401.833 374.333,413.167 374,424.5C 372.517,428.665 369.684,430.165 365.5,429C 356.833,426.333 348.167,423.667 339.5,421C 329.784,418.685 321.618,421.185 315,428.5C 309.744,438.68 304.744,449.014 300,459.5C 296.367,462.241 292.867,462.074 289.5,459C 281.702,450.862 273.035,443.862 263.5,438C 256.62,435.788 249.954,436.288 243.5,439.5 Z"/></g>
<g><path style="opacity:1" fill="#ebc72a" d="M 426.5,135.5 C 437.681,139.524 438.181,144.524 428,150.5C 424.833,148.667 422.333,146.167 420.5,143C 422.32,140.348 424.32,137.848 426.5,135.5 Z"/></g>
<g><path style="opacity:1" fill="#fea612" d="M 241.5,137.5 C 299.361,135.003 342.528,158.669 371,208.5C 392.598,257.184 387.932,303.184 357,346.5C 319.455,389.346 272.955,403.846 217.5,390C 159.064,368.513 128.731,326.513 126.5,264C 130.303,206.702 158.636,167.035 211.5,145C 221.557,142.101 231.557,139.601 241.5,137.5 Z"/></g>
<g><path style="opacity:1" fill="#fd9901" d="M 240.5,173.5 C 290.025,169.597 324.525,190.264 344,235.5C 356.766,282.425 343.266,319.592 303.5,347C 260.069,368.892 220.902,363.059 186,329.5C 161.663,299.845 155.996,266.845 169,230.5C 183.287,199.45 207.12,180.45 240.5,173.5 Z"/></g>
<g><path style="opacity:1" fill="#fb8800" d="M 248.5,208.5 C 283.144,207.655 304.644,223.988 313,257.5C 315.009,293 298.842,315.167 264.5,324C 237.824,326.563 217.658,316.396 204,293.5C 190.664,260.512 198.831,234.346 228.5,215C 234.992,211.891 241.658,209.724 248.5,208.5 Z"/></g>
<g><path style="opacity:1" fill="#ebc72a" d="M 42.5,216.5 C 53.6811,220.524 54.1811,225.524 44,231.5C 40.8333,229.667 38.3333,227.167 36.5,224C 38.3198,221.348 40.3198,218.848 42.5,216.5 Z"/></g>
<g><path style="opacity:1" fill="#f8a31c" d="M 464.5,300.5 C 465.822,300.33 466.989,300.663 468,301.5C 470.167,309 475,313.833 482.5,316C 483.022,316.561 483.355,317.228 483.5,318C 481.199,320.156 478.533,321.822 475.5,323C 471.717,326.749 468.551,330.915 466,335.5C 465.228,335.355 464.561,335.022 464,334.5C 463.275,332.051 462.275,329.717 461,327.5C 457.153,323.688 452.986,320.521 448.5,318C 448.645,317.228 448.978,316.561 449.5,316C 457.392,313.608 462.392,308.442 464.5,300.5 Z"/></g>
<g><path style="opacity:1" fill="#edeefa" d="M 63.5,325.5 C 74.6811,329.524 75.1811,334.524 65,340.5C 61.8333,338.667 59.3333,336.167 57.5,333C 59.3198,330.348 61.3198,327.848 63.5,325.5 Z"/></g>
<g><path style="opacity:0.967" fill="#faa41a" d="M 439.5,429.5 C 441.649,431.746 444.316,433.246 447.5,434C 455.417,435.655 463.417,436.655 471.5,437C 472.517,438.049 472.684,439.216 472,440.5C 463.834,441.309 455.667,442.475 447.5,444C 440.667,445.5 436.5,449.667 435,456.5C 433.345,464.417 432.345,472.417 432,480.5C 430.667,481.833 429.333,481.833 428,480.5C 427.655,472.417 426.655,464.417 425,456.5C 424.246,453.316 422.746,450.649 420.5,448.5C 419.657,446.827 418.324,445.66 416.5,445C 407.022,442.319 397.355,440.819 387.5,440.5C 387.5,439.5 387.5,438.5 387.5,437.5C 393.493,437.001 399.493,436.501 405.5,436C 419,435.167 426.167,428 427,414.5C 427.501,408.493 428.001,402.493 428.5,396.5C 429.5,396.5 430.5,396.5 431.5,396.5C 432.003,403.866 432.837,411.199 434,418.5C 434.426,422.99 436.259,426.656 439.5,429.5 Z"/></g>
<g><path style="opacity:0.975" fill="#fba516" d="M 88.5,447.5 C 86.1904,450.102 84.3571,453.102 83,456.5C 81.9505,457.517 80.7839,457.684 79.5,457C 77.0335,449.367 72.0335,444.2 64.5,441.5C 63.5481,439.955 63.2148,438.288 63.5,436.5C 67.385,435.891 70.7183,434.224 73.5,431.5C 76.232,428.383 78.732,425.049 81,421.5C 83.5208,425.986 86.6875,430.153 90.5,434C 92.8333,435.167 95.1667,436.333 97.5,437.5C 98.5827,438.365 98.7494,439.365 98,440.5C 93.7583,441.601 90.5916,443.934 88.5,447.5 Z"/></g>
<g><path style="opacity:1" fill="#f9d008" d="M 254.5,463.5 C 257.944,465.108 260.61,467.608 262.5,471C 260.702,473.966 258.369,476.466 255.5,478.5C 252.631,476.466 250.298,473.966 248.5,471C 250.32,468.348 252.32,465.848 254.5,463.5 Z"/></g>
</svg>
