<?xml version="1.0" encoding="UTF-8"?>
<!DOCTYPE svg PUBLIC "-//W3C//DTD SVG 1.1//EN" "http://www.w3.org/Graphics/SVG/1.1/DTD/svg11.dtd">
<svg xmlns="http://www.w3.org/2000/svg" version="1.1" width="441px" height="512px" style="shape-rendering:geometricPrecision; text-rendering:geometricPrecision; image-rendering:optimizeQuality; fill-rule:evenodd; clip-rule:evenodd" xmlns:xlink="http://www.w3.org/1999/xlink">
<g><path style="opacity:0.962" fill="#000000" d="M 205.5,-0.5 C 215.833,-0.5 226.167,-0.5 236.5,-0.5C 286.797,8.28989 320.963,36.6232 339,84.5C 354.759,147.928 335.259,197.094 280.5,232C 244.908,249.392 208.574,251.059 171.5,237C 118.294,210.39 93.7939,167.223 98,107.5C 104.481,65.6925 125.981,34.1925 162.5,13C 176.16,5.94454 190.493,1.44454 205.5,-0.5 Z M 207.5,30.5 C 253.636,27.1441 286.803,46.1441 307,87.5C 322.721,136.678 309.221,175.511 266.5,204C 240.245,217.314 213.245,218.981 185.5,209C 134.888,182.258 118.055,141.424 135,86.5C 149.787,55.5313 173.953,36.8646 207.5,30.5 Z"/></g>
<g><path style="opacity:0.971" fill="#000000" d="M 362.5,511.5 C 270.167,511.5 177.833,511.5 85.5,511.5C 53.553,507.395 30.7197,490.728 17,461.5C 13.9767,454.097 11.9767,446.431 11,438.5C 8.31426,400.004 12.6476,362.338 24,325.5C 31.4542,302.068 44.2875,282.235 62.5,266C 83.0121,250.497 106.012,244.497 131.5,248C 142.503,254.166 153.17,260.833 163.5,268C 201.636,290.13 240.303,291.13 279.5,271C 291.665,263.083 303.999,255.416 316.5,248C 357.504,243.919 388.671,259.419 410,294.5C 426.001,324.831 435.001,357.164 437,391.5C 438.439,407.517 438.439,423.517 437,439.5C 428.981,480.922 404.147,504.922 362.5,511.5 Z M 113.5,277.5 C 116.187,277.336 118.854,277.503 121.5,278C 137.051,288.612 153.385,297.945 170.5,306C 214.7,322.643 257.367,319.309 298.5,296C 307.833,290 317.167,284 326.5,278C 351.676,277.849 370.509,288.682 383,310.5C 395.358,333.247 402.691,357.58 405,383.5C 406.907,401.502 407.241,419.502 406,437.5C 400.945,459.555 387.445,473.389 365.5,479C 359.551,480.073 353.551,480.74 347.5,481C 265.167,481.667 182.833,481.667 100.5,481C 76.9693,481.822 59.136,472.322 47,452.5C 44.7314,447.36 43.0647,442.027 42,436.5C 39.0648,398.715 44.0648,362.048 57,326.5C 63.7981,309.046 74.9648,295.212 90.5,285C 97.991,281.558 105.658,279.058 113.5,277.5 Z"/></g>
</svg>
