<?xml version="1.0" encoding="UTF-8"?>
<!DOCTYPE svg PUBLIC "-//W3C//DTD SVG 1.1//EN" "http://www.w3.org/Graphics/SVG/1.1/DTD/svg11.dtd">
<svg xmlns="http://www.w3.org/2000/svg" version="1.1" width="359px" height="433px" style="shape-rendering:geometricPrecision; text-rendering:geometricPrecision; image-rendering:optimizeQuality; fill-rule:evenodd; clip-rule:evenodd" xmlns:xlink="http://www.w3.org/1999/xlink">
<g><path style="opacity:0.95" fill="#000000" d="M 144.5,4.5 C 168.502,4.33337 192.502,4.50003 216.5,5C 239.318,9.48104 257.151,21.3144 270,40.5C 276.293,51.3379 279.96,63.0046 281,75.5C 281.5,94.4971 281.667,113.497 281.5,132.5C 315.528,130.238 338.361,144.905 350,176.5C 350.882,179.789 351.548,183.123 352,186.5C 352.667,248.833 352.667,311.167 352,373.5C 346.817,401.683 330.317,419.183 302.5,426C 221.167,426.667 139.833,426.667 58.5,426C 30.6834,419.183 14.1834,401.683 9,373.5C 8.33333,311.167 8.33333,248.833 9,186.5C 13.3206,158.516 29.1539,141.016 56.5,134C 64.1128,132.738 71.7795,132.238 79.5,132.5C 79.3334,113.497 79.5001,94.4971 80,75.5C 85.4972,37.1017 106.997,13.435 144.5,4.5 Z M 147.5,25.5 C 169.503,25.3334 191.503,25.5 213.5,26C 237.552,31.7187 252.719,46.5521 259,70.5C 260.415,91.1308 260.915,111.797 260.5,132.5C 207.167,132.5 153.833,132.5 100.5,132.5C 100.333,114.164 100.5,95.8303 101,77.5C 105.139,49.8678 120.639,32.5345 147.5,25.5 Z M 64.5,153.5 C 141.834,153.333 219.167,153.5 296.5,154C 316,157.5 327.5,169 331,188.5C 331.667,249.5 331.667,310.5 331,371.5C 327.386,389.115 316.886,400.282 299.5,405C 220.167,405.667 140.833,405.667 61.5,405C 44.1143,400.282 33.6143,389.115 30,371.5C 29.3333,310.5 29.3333,249.5 30,188.5C 33.6798,168.988 45.1798,157.321 64.5,153.5 Z"/></g>
<g><path style="opacity:0.956" fill="#000000" d="M 175.5,225.5 C 200.837,225.669 213.004,238.335 212,263.5C 209.525,275.804 202.358,283.804 190.5,287.5C 190.666,297.506 190.5,307.506 190,317.5C 186.252,323.542 181.085,325.042 174.5,322C 172.951,320.786 171.785,319.286 171,317.5C 170.5,307.506 170.334,297.506 170.5,287.5C 156.529,282.762 149.196,272.929 148.5,258C 149.397,240.344 158.397,229.511 175.5,225.5 Z"/></g>
</svg>
