<?xml version="1.0" standalone="no"?>
<!DOCTYPE svg PUBLIC "-//W3C//DTD SVG 20010904//EN"
 "http://www.w3.org/TR/2001/REC-SVG-20010904/DTD/svg10.dtd">
<svg version="1.0" xmlns="http://www.w3.org/2000/svg"
 width="512.000000pt" height="512.000000pt" viewBox="0 0 512.000000 512.000000"
 preserveAspectRatio="xMidYMid meet">

<g transform="translate(0.000000,512.000000) scale(0.100000,-0.100000)"
fill="#000000" stroke="none">
<path d="M1150 5036 c-307 -54 -552 -185 -768 -409 -207 -216 -338 -494 -373
-791 -6 -58 -9 -350 -7 -811 l3 -720 28 -88 c65 -208 180 -371 344 -485 28
-20 31 -26 23 -47 -19 -49 -90 -626 -90 -726 0 -38 -1 -39 -37 -39 -54 -1
-116 -32 -149 -76 -28 -36 -29 -42 -32 -162 -4 -147 -2 -160 40 -208 39 -44
82 -64 138 -64 l40 0 0 -144 c0 -130 2 -146 21 -170 l20 -26 290 0 c276 0 290
1 309 20 27 27 26 81 -1 106 -19 17 -41 19 -255 22 l-234 3 0 95 0 94 2038 -2
2037 -3 3 -92 3 -93 -1692 -2 -1691 -3 -19 -24 c-25 -30 -24 -76 1 -101 20
-20 33 -20 1759 -20 1697 0 1739 0 1762 19 23 18 24 26 27 170 l4 151 39 0
c43 0 104 27 130 56 40 46 49 81 49 195 0 135 -18 184 -83 227 -36 24 -52 27
-137 30 l-97 4 -17 181 c-24 254 -63 532 -81 588 -9 25 -32 65 -51 88 -61 71
-242 164 -479 246 -118 41 -152 66 -95 73 305 34 554 218 674 499 l32 76 54
14 c218 56 346 304 259 503 -11 24 -27 52 -36 62 -15 16 -13 21 23 60 241 262
307 674 174 1088 -43 132 -79 202 -113 218 -25 12 -33 11 -77 -12 -94 -49
-165 -32 -345 83 -43 28 -85 51 -92 51 -50 0 -92 -56 -74 -102 10 -27 163
-131 259 -176 51 -24 69 -27 165 -27 l107 0 25 -75 c82 -250 84 -503 5 -708
-60 -156 -197 -324 -272 -335 l-38 -6 0 93 c0 131 4 129 -213 138 -369 15
-713 95 -1001 232 -117 55 -264 145 -324 197 -66 58 -142 24 -142 -62 0 -93
-69 -227 -147 -287 l-33 -25 0 74 c0 252 -78 527 -206 731 -16 25 -20 38 -12
38 21 0 148 -38 205 -61 31 -12 63 -19 77 -15 14 3 47 37 81 83 162 217 389
387 582 437 165 43 410 3 615 -100 80 -40 107 -42 136 -11 27 28 28 67 5 95
-23 27 -156 92 -258 126 -175 58 -385 73 -531 36 -105 -26 -259 -104 -364
-184 -83 -62 -194 -171 -275 -269 l-40 -48 -58 20 c-74 26 -205 51 -265 51
-42 0 -49 4 -126 78 -176 169 -394 285 -646 344 -110 26 -399 34 -510 14z
m426 -151 c505 -89 903 -486 995 -995 11 -59 14 -234 14 -820 l0 -745 -34 -97
c-42 -121 -109 -226 -199 -310 -105 -96 -106 -97 -181 -53 -86 50 -223 111
-366 161 -71 25 -120 47 -120 55 0 9 27 17 82 26 314 49 568 281 654 598 20
74 22 104 23 426 1 393 5 376 -80 399 -134 38 -307 202 -414 393 -18 31 -40
62 -50 67 -34 18 -75 11 -101 -16 -39 -42 -179 -131 -283 -179 -277 -130 -733
-245 -1066 -270 -47 -4 -97 -11 -112 -17 -48 -18 -50 -40 -45 -400 5 -382 8
-400 89 -566 115 -236 355 -409 607 -438 48 -5 61 -10 61 -23 0 -12 -21 -24
-72 -40 -117 -37 -309 -119 -394 -167 -96 -55 -93 -56 -219 71 -73 73 -99 106
-133 175 -81 165 -77 119 -77 980 l0 765 32 117 c126 469 502 817 972 902 105
19 309 19 417 1z m324 -1160 c108 -149 245 -269 364 -319 l38 -16 -5 -292 c-4
-224 -9 -308 -21 -357 -45 -175 -179 -342 -336 -419 -143 -70 -158 -72 -570
-72 -415 0 -441 4 -574 72 -111 58 -227 174 -278 278 -66 135 -71 163 -75 482
l-5 287 34 5 c18 3 76 10 128 16 231 27 562 107 792 191 128 47 319 141 393
193 28 19 51 35 51 35 1 1 30 -37 64 -84z m1425 -91 c289 -134 652 -222 998
-240 l127 -7 0 -291 c0 -330 -4 -357 -72 -496 -78 -160 -241 -289 -423 -335
-86 -22 -761 -22 -853 0 -112 27 -211 83 -304 174 l-58 55 0 468 0 468 48 24
c101 51 207 173 247 284 l18 49 91 -55 c50 -31 132 -74 181 -98z m1405 -474
c26 -14 43 -82 34 -134 -13 -80 -60 -144 -132 -181 l-34 -16 4 151 c3 145 4
153 27 171 25 21 71 25 101 9z m-1938 -914 c116 -80 236 -128 357 -142 48 -5
61 -10 61 -23 0 -12 -21 -24 -72 -40 -205 -65 -435 -176 -505 -244 -76 -73
-89 -124 -138 -557 -14 -124 -25 -246 -25 -272 0 -39 -3 -48 -18 -48 -16 0
-20 20 -35 183 -21 218 -64 541 -77 579 -8 25 -5 30 33 58 160 116 297 319
339 499 6 28 13 51 14 51 2 0 31 -20 66 -44z m-1262 -215 c0 -54 -5 -75 -23
-102 -54 -80 -142 -102 -222 -54 -48 28 -71 67 -81 142 -11 86 -17 83 166 83
l160 0 0 -69z m2160 0 c0 -77 -21 -119 -79 -158 -67 -45 -177 -20 -221 52 -22
35 -38 130 -27 159 5 14 30 16 167 16 l160 0 0 -69z m-2591 -175 c17 -30 50
-70 75 -89 l45 -34 -62 -61 c-35 -34 -65 -62 -69 -62 -6 0 -98 251 -98 268 0
9 41 27 72 31 3 1 20 -23 37 -53z m612 43 c19 -7 36 -13 38 -15 5 -5 -92 -274
-99 -274 -3 0 -34 28 -68 63 l-63 64 39 25 c39 26 102 109 102 135 0 16 7 16
51 2z m1550 -46 c19 -32 53 -72 76 -89 l41 -31 -64 -64 c-35 -34 -66 -60 -69
-57 -8 8 -95 250 -95 264 0 11 40 31 66 33 6 1 26 -25 45 -56z m610 46 c19 -7
36 -13 38 -15 5 -4 -93 -274 -99 -274 -3 0 -34 28 -68 63 l-63 63 37 26 c38
28 104 112 104 135 0 16 7 16 51 2z m-2956 -267 c57 -161 80 -213 127 -282 77
-116 156 -206 232 -268 51 -42 71 -52 101 -52 34 0 46 9 149 113 163 164 209
239 297 482 39 110 73 202 75 204 2 2 33 -11 69 -28 l67 -31 -51 -56 c-95
-107 -157 -273 -168 -449 -4 -75 -1 -110 21 -206 14 -64 26 -121 26 -128 0 -8
-133 -11 -490 -11 -460 0 -490 1 -490 18 0 9 12 64 26 122 22 88 25 119 20
195 -11 177 -79 360 -172 464 l-46 51 64 30 c34 16 65 30 68 30 3 0 37 -89 75
-198z m2160 -3 c51 -142 82 -212 118 -268 72 -109 162 -215 236 -277 53 -44
72 -54 103 -54 33 0 47 9 130 89 90 86 181 200 232 292 14 24 55 127 91 229
37 102 68 186 70 188 1 2 33 -11 70 -27 l67 -31 -51 -56 c-145 -158 -203 -437
-142 -687 13 -54 21 -100 19 -103 -3 -2 -225 -3 -495 -2 l-490 3 29 125 c25
107 29 137 23 212 -12 175 -77 350 -170 456 l-47 52 63 30 c34 16 65 27 69 25
4 -2 38 -91 75 -196z m-2453 14 c84 -87 140 -224 154 -379 5 -57 2 -92 -20
-185 -15 -63 -29 -124 -31 -136 -5 -22 -9 -23 -135 -23 l-130 0 0 35 c0 109
72 671 90 705 15 29 31 25 72 -17z m1567 10 c18 -40 91 -607 91 -708 l0 -26
-132 3 -131 3 -29 130 c-24 108 -28 144 -24 211 6 89 34 191 73 268 27 53 108
146 128 146 6 0 17 -12 24 -27z m602 -22 c60 -63 106 -159 130 -274 27 -134
28 -121 -36 -414 -5 -22 -9 -23 -135 -23 l-130 0 0 43 c0 110 66 636 86 685 7
17 19 32 25 32 7 0 34 -22 60 -49z m1558 22 c18 -39 91 -610 91 -713 0 -19 -6
-20 -135 -20 -133 0 -135 0 -135 23 0 12 -11 68 -25 125 -14 57 -25 128 -25
158 0 83 27 201 65 281 33 71 116 173 140 173 6 0 17 -12 24 -27z m-788 -84
l-33 -31 -34 33 -34 33 32 33 32 33 36 -35 35 -36 -34 -30z m-2158 66 c15 -13
27 -28 27 -33 0 -4 -14 -21 -30 -37 l-30 -29 -36 35 -35 34 31 28 c37 33 38
33 73 2z m-175 -168 l32 -33 -29 -28 -29 -28 -26 38 -26 38 22 23 c12 13 22
23 23 23 0 0 15 -15 33 -33z m355 -21 c-4 -6 -16 -23 -27 -39 l-20 -27 -28 27
-28 27 32 33 32 33 23 -22 c12 -11 19 -26 16 -32z m1805 21 l32 -33 -29 -28
-29 -28 -26 38 -26 38 22 23 c12 13 22 23 23 23 0 0 15 -15 33 -33z m335 -49
l-26 -39 -29 28 -28 27 32 33 32 33 22 -21 23 -21 -26 -40z m-2315 -121 l32
-33 -35 -34 -35 -34 -35 34 -35 34 32 33 c18 18 35 33 38 33 3 0 20 -15 38
-33z m2170 -11 l22 -20 -32 -33 c-17 -18 -35 -33 -38 -33 -3 0 -21 14 -39 32
l-32 31 32 33 c35 36 34 36 87 -10z m1171 -530 c8 -9 11 -46 9 -103 l-3 -88
-2255 0 -2255 0 -3 94 c-2 69 1 97 10 103 7 4 1019 8 2249 8 1906 0 2238 -2
2248 -14z"/>
<path d="M756 3288 c-9 -12 -16 -30 -16 -39 0 -22 32 -49 58 -49 19 0 22 -5
22 -47 0 -51 26 -119 53 -142 42 -34 108 1 127 68 23 83 -2 195 -48 220 -12 6
-57 11 -101 11 -71 0 -82 -2 -95 -22z"/>
<path d="M1765 3284 c-46 -50 -58 -149 -26 -219 22 -49 43 -67 77 -67 53 0 94
68 94 160 0 40 1 42 29 42 20 0 35 8 45 22 21 30 20 44 -4 68 -17 17 -33 20
-105 20 -80 0 -88 -2 -110 -26z"/>
<path d="M1196 2749 c-37 -29 -36 -81 2 -116 44 -42 100 -63 170 -63 73 0 124
19 170 62 40 40 42 79 6 115 -29 29 -68 27 -111 -7 -35 -27 -89 -25 -138 5
-49 30 -65 31 -99 4z"/>
<path d="M3013 3368 c-35 -39 -45 -69 -45 -133 0 -155 122 -213 171 -82 15 40
14 131 -3 171 -26 63 -86 84 -123 44z"/>
<path d="M3946 3360 c-25 -30 -46 -86 -46 -123 0 -10 5 -38 11 -62 39 -156
179 -110 179 58 -1 126 -83 199 -144 127z"/>
<path d="M3342 2747 c-46 -48 -18 -107 70 -151 107 -53 267 -19 315 67 19 33
15 55 -12 82 -31 32 -72 32 -115 0 -22 -16 -47 -25 -71 -25 -22 0 -50 10 -73
25 -46 31 -86 32 -114 2z"/>
</g>
</svg>
