<?xml version="1.0" encoding="UTF-8"?>
<!DOCTYPE svg PUBLIC "-//W3C//DTD SVG 1.1//EN" "http://www.w3.org/Graphics/SVG/1.1/DTD/svg11.dtd">
<svg xmlns="http://www.w3.org/2000/svg" version="1.1" width="512px" height="512px" style="shape-rendering:geometricPrecision; text-rendering:geometricPrecision; image-rendering:optimizeQuality; fill-rule:evenodd; clip-rule:evenodd" xmlns:xlink="http://www.w3.org/1999/xlink">
<g><path style="opacity:0.945" fill="#fefffe" d="M 82.5,70.5 C 88.678,70.1067 94.678,70.9401 100.5,73C 152,124.5 203.5,176 255,227.5C 306.5,176 358,124.5 409.5,73C 420.037,68.3316 429.204,70.1649 437,78.5C 440.333,85.8333 440.333,93.1667 437,100.5C 385.5,152 334,203.5 282.5,255C 334,306.5 385.5,358 437,409.5C 441.668,420.037 439.835,429.204 431.5,437C 424.167,440.333 416.833,440.333 409.5,437C 358,385.5 306.5,334 255,282.5C 203.5,334 152,385.5 100.5,437C 89.9631,441.668 80.7965,439.835 73,431.5C 69.669,424.179 69.669,416.845 73,409.5C 124.5,358 176,306.5 227.5,255C 176,203.5 124.5,152 73,100.5C 67.3335,87.5383 70.5002,77.5383 82.5,70.5 Z"/></g>
</svg>
