<?xml version="1.0" encoding="UTF-8"?>
<!DOCTYPE svg PUBLIC "-//W3C//DTD SVG 1.1//EN" "http://www.w3.org/Graphics/SVG/1.1/DTD/svg11.dtd">
<svg xmlns="http://www.w3.org/2000/svg" version="1.1" width="512px" height="512px" style="shape-rendering:geometricPrecision; text-rendering:geometricPrecision; image-rendering:optimizeQuality; fill-rule:evenodd; clip-rule:evenodd" xmlns:xlink="http://www.w3.org/1999/xlink">
<g><path style="opacity:0.927" fill="#fefffe" d="M 206.5,103.5 C 262.501,103.333 318.501,103.5 374.5,104C 392.987,104.156 403.82,113.322 407,131.5C 407.98,189.87 407.647,248.203 406,306.5C 402.167,317 395,324.167 384.5,328C 365.52,329.216 346.52,329.716 327.5,329.5C 327.716,348.52 327.216,367.52 326,386.5C 322.5,395.333 316.333,401.5 307.5,405C 247.839,406.408 188.173,406.742 128.5,406C 113.914,404.081 105.08,395.914 102,381.5C 101.019,320.797 101.352,260.13 103,199.5C 106.26,190.573 112.427,184.739 121.5,182C 141.482,180.786 161.482,180.286 181.5,180.5C 181.054,162.444 181.554,144.444 183,126.5C 187.415,115.25 195.249,107.584 206.5,103.5 Z M 212.5,126.5 C 266.501,126.333 320.501,126.5 374.5,127C 378.066,127.7 380.9,129.533 383,132.5C 384.439,187.493 384.772,242.493 384,297.5C 383.167,302.333 380.333,305.167 375.5,306C 359.503,306.5 343.503,306.667 327.5,306.5C 327.667,272.832 327.5,239.165 327,205.5C 324.705,190.871 316.205,182.705 301.5,181C 269.168,180.5 236.835,180.333 204.5,180.5C 204.333,165.496 204.5,150.496 205,135.5C 206.268,131.405 208.768,128.405 212.5,126.5 Z M 129.5,203.5 C 185.834,203.333 242.168,203.5 298.5,204C 300.329,204.273 301.829,205.107 303,206.5C 304.265,256.611 305.098,306.777 305.5,357C 305.333,364.167 305.167,371.333 305,378.5C 303.622,381.108 301.455,382.608 298.5,383C 242.833,383.667 187.167,383.667 131.5,383C 128.107,382.606 125.94,380.773 125,377.5C 124.333,321.5 124.333,265.5 125,209.5C 125.599,206.746 127.099,204.746 129.5,203.5 Z"/></g>
</svg>
