<?xml version="1.0" encoding="UTF-8"?>
<!DOCTYPE svg PUBLIC "-//W3C//DTD SVG 1.1//EN" "http://www.w3.org/Graphics/SVG/1.1/DTD/svg11.dtd">
<svg xmlns="http://www.w3.org/2000/svg" version="1.1" width="512px" height="512px" style="shape-rendering:geometricPrecision; text-rendering:geometricPrecision; image-rendering:optimizeQuality; fill-rule:evenodd; clip-rule:evenodd" xmlns:xlink="http://www.w3.org/1999/xlink">
<g><path style="opacity:0.959" fill="#fdfefb" d="M 91.5,-0.5 C 200.5,-0.5 309.5,-0.5 418.5,-0.5C 465.721,12.8672 490.888,44.2006 494,93.5C 494.667,201.167 494.667,308.833 494,416.5C 490.804,467.849 464.304,499.516 414.5,511.5C 308.167,511.5 201.833,511.5 95.5,511.5C 46.1646,499.652 19.6646,468.319 16,417.5C 15.3333,309.167 15.3333,200.833 16,92.5C 19.4128,43.6029 44.5795,12.6029 91.5,-0.5 Z M 102.5,43.5 C 203.501,43.3333 304.501,43.5 405.5,44C 429,48.8333 443.167,63 448,86.5C 448.667,198.833 448.667,311.167 448,423.5C 443.167,447 429,461.167 405.5,466C 305.167,466.667 204.833,466.667 104.5,466C 81,461.167 66.8333,447 62,423.5C 61.3333,311.167 61.3333,198.833 62,86.5C 66.8289,63.8418 80.3289,49.5085 102.5,43.5 Z"/></g>
</svg>
