<?xml version="1.0" encoding="UTF-8"?>
<!DOCTYPE svg PUBLIC "-//W3C//DTD SVG 1.1//EN" "http://www.w3.org/Graphics/SVG/1.1/DTD/svg11.dtd">
<svg xmlns="http://www.w3.org/2000/svg" version="1.1" width="512px" height="512px" style="shape-rendering:geometricPrecision; text-rendering:geometricPrecision; image-rendering:optimizeQuality; fill-rule:evenodd; clip-rule:evenodd" xmlns:xlink="http://www.w3.org/1999/xlink">
<g><path style="opacity:0.945" fill="#fefffe" d="M 75.5,168.5 C 83.0501,167.543 90.0501,169.043 96.5,173C 113.128,200.306 133.461,224.639 157.5,246C 222.935,296.2 288.268,295.867 353.5,245C 377.086,224.792 397.419,201.792 414.5,176C 429.466,168.881 440.966,172.381 449,186.5C 451.249,193.764 450.582,200.764 447,207.5C 442.711,213.245 438.544,219.079 434.5,225C 445.333,237.167 456.167,249.333 467,261.5C 473.233,277.155 468.733,288.321 453.5,295C 443.002,297.088 434.502,293.921 428,285.5C 419.962,277.13 412.295,268.464 405,259.5C 393.884,270.955 381.884,281.289 369,290.5C 368.333,291.5 368.333,292.5 369,293.5C 377.921,309.675 386.588,326.008 395,342.5C 398.017,360.846 390.35,370.512 372,371.5C 364.933,371.133 359.266,368.133 355,362.5C 346.425,345.678 337.092,329.345 327,313.5C 311.464,320.26 295.297,324.927 278.5,327.5C 277.818,344.837 276.985,362.171 276,379.5C 267.071,392.18 255.571,395.013 241.5,388C 238.117,384.731 235.617,380.897 234,376.5C 233.5,359.837 233.333,343.17 233.5,326.5C 216.262,324.316 199.428,320.316 183,314.5C 173.839,329.481 165.173,344.814 157,360.5C 144.94,374.294 132.273,374.961 119,362.5C 115.061,355.874 114.061,348.874 116,341.5C 125.637,324.565 134.303,307.231 142,289.5C 129.433,280.439 117.6,270.439 106.5,259.5C 97.343,269.493 88.343,279.659 79.5,290C 67.2914,299.204 55.7914,298.37 45,287.5C 40.815,278.982 40.4816,270.316 44,261.5C 54.4599,248.705 65.2932,236.205 76.5,224C 67.7834,214.066 62.1168,202.566 59.5,189.5C 60.7737,179.238 66.107,172.238 75.5,168.5 Z"/></g>
</svg>
