<?xml version="1.0" encoding="UTF-8"?>
<!DOCTYPE svg PUBLIC "-//W3C//DTD SVG 1.1//EN" "http://www.w3.org/Graphics/SVG/1.1/DTD/svg11.dtd">
<svg xmlns="http://www.w3.org/2000/svg" version="1.1" width="441px" height="512px" style="shape-rendering:geometricPrecision; text-rendering:geometricPrecision; image-rendering:optimizeQuality; fill-rule:evenodd; clip-rule:evenodd" xmlns:xlink="http://www.w3.org/1999/xlink">
<g><path style="opacity:0.93" fill="#fefffe" d="M 195.5,-0.5 C 211.5,-0.5 227.5,-0.5 243.5,-0.5C 299.425,12.9253 332.592,47.9253 343,104.5C 348.899,167.222 323.399,211.722 266.5,238C 207.44,257.119 158.273,242.952 119,195.5C 98.2302,163.555 91.8969,128.889 100,91.5C 114.429,42.5677 146.262,11.901 195.5,-0.5 Z M 204.5,30.5 C 251.53,26.5855 285.363,45.5855 306,87.5C 322.228,142.196 305.061,182.363 254.5,208C 210.404,222.355 173.904,211.522 145,175.5C 130.195,154.143 125.362,130.643 130.5,105C 137.217,71.9214 156.217,48.9214 187.5,36C 193.249,34.0269 198.916,32.1936 204.5,30.5 Z"/></g>
<g><path style="opacity:0.94" fill="#fefffe" d="M 364.5,511.5 C 270.167,511.5 175.833,511.5 81.5,511.5C 41.3913,503.224 17.5579,478.89 10,438.5C 7.12506,397.5 12.1251,357.5 25,318.5C 32.9091,297.184 45.4091,279.018 62.5,264C 83.1585,249.198 106.159,243.531 131.5,247C 145.167,255.333 158.833,263.667 172.5,272C 208.98,289.365 244.98,288.365 280.5,269C 291.998,261.417 303.665,254.083 315.5,247C 362.726,243.188 396.226,262.688 416,305.5C 434.439,348.341 441.439,393.007 437,439.5C 428.834,479.833 404.668,503.833 364.5,511.5 Z M 111.5,277.5 C 114.518,277.335 117.518,277.502 120.5,278C 136.019,288.598 152.352,297.931 169.5,306C 214.062,322.577 257.062,319.243 298.5,296C 308,289.833 317.5,283.667 327,277.5C 350.587,278.288 368.587,288.622 381,308.5C 395.71,335.634 403.71,364.634 405,395.5C 405.667,409.167 405.667,422.833 405,436.5C 396.86,465.28 377.693,479.78 347.5,480C 263.167,480.667 178.833,480.667 94.5,480C 66.0826,477.895 48.5826,463.062 42,435.5C 39.1558,398.076 44.1558,361.743 57,326.5C 66.61,300.378 84.7767,284.044 111.5,277.5 Z"/></g>
</svg>
