<?xml version="1.0" encoding="UTF-8"?>
<!DOCTYPE svg PUBLIC "-//W3C//DTD SVG 1.1//EN" "http://www.w3.org/Graphics/SVG/1.1/DTD/svg11.dtd">
<svg xmlns="http://www.w3.org/2000/svg" version="1.1" width="359px" height="433px" style="shape-rendering:geometricPrecision; text-rendering:geometricPrecision; image-rendering:optimizeQuality; fill-rule:evenodd; clip-rule:evenodd" xmlns:xlink="http://www.w3.org/1999/xlink">
<g><path style="opacity:0.908" fill="#fefffe" d="M 141.5,3.5 C 165.836,3.33336 190.169,3.50003 214.5,4C 246.456,9.62441 267.623,27.7911 278,58.5C 279.385,63.7608 280.385,69.0941 281,74.5C 281.5,93.4971 281.667,112.497 281.5,131.5C 320.682,129.858 344.182,148.192 352,186.5C 352.667,248.5 352.667,310.5 352,372.5C 347.906,399.594 332.74,417.094 306.5,425C 264.354,426.138 222.187,426.638 180,426.5C 138.144,426.641 96.3111,426.141 54.5,425C 27.7015,417.533 12.2015,400.033 8,372.5C 7.33333,310.5 7.33333,248.5 8,186.5C 11.8286,158.005 27.6619,140.172 55.5,133C 63.1254,131.858 70.7921,131.358 78.5,131.5C 78.3334,112.497 78.5001,93.4971 79,74.5C 84.477,37.1963 105.31,13.5296 141.5,3.5 Z M 145.5,25.5 C 167.836,25.3334 190.169,25.5 212.5,26C 236.591,31.7584 251.758,46.5917 258,70.5C 259.221,90.8149 259.721,111.148 259.5,131.5C 206.5,131.5 153.5,131.5 100.5,131.5C 100.333,113.497 100.5,95.4969 101,77.5C 104.936,50.7377 119.769,33.4044 145.5,25.5 Z M 62.5,153.5 C 140.167,153.333 217.834,153.5 295.5,154C 315,157.5 326.5,169 330,188.5C 330.667,249.167 330.667,309.833 330,370.5C 326.382,388.119 315.882,399.285 298.5,404C 219.5,404.667 140.5,404.667 61.5,404C 44.1183,399.285 33.6183,388.119 30,370.5C 29.3333,309.833 29.3333,249.167 30,188.5C 33.4641,169.873 44.2974,158.206 62.5,153.5 Z"/></g>
<g><path style="opacity:0.916" fill="#fefffe" d="M 172.5,224.5 C 202.091,223.921 214.924,238.254 211,267.5C 207.667,277.5 201,284.167 191,287.5C 190.667,297.5 190.333,307.5 190,317.5C 185.832,323.486 180.332,324.986 173.5,322C 171.951,320.786 170.785,319.286 170,317.5C 169.667,307.5 169.333,297.5 169,287.5C 151.199,279.899 144.532,266.565 149,247.5C 152.753,235.58 160.586,227.913 172.5,224.5 Z"/></g>
</svg>
