<?xml version="1.0" encoding="UTF-8"?>
<!DOCTYPE svg PUBLIC "-//W3C//DTD SVG 1.1//EN" "http://www.w3.org/Graphics/SVG/1.1/DTD/svg11.dtd">
<svg xmlns="http://www.w3.org/2000/svg" version="1.1" width="512px" height="512px" style="shape-rendering:geometricPrecision; text-rendering:geometricPrecision; image-rendering:optimizeQuality; fill-rule:evenodd; clip-rule:evenodd" xmlns:xlink="http://www.w3.org/1999/xlink">
<g><path style="opacity:0.937" fill="#fefffe" d="M 511.5,247.5 C 511.5,252.5 511.5,257.5 511.5,262.5C 471.081,316.539 420.414,358.039 359.5,387C 264.935,426.095 176.269,415.762 93.5,356C 57.9824,329.315 26.6491,298.482 -0.5,263.5C -0.5,257.833 -0.5,252.167 -0.5,246.5C 41.3404,190.828 94.007,148.661 157.5,120C 250.12,84.3685 336.454,95.7019 416.5,154C 452.378,181.046 484.045,212.213 511.5,247.5 Z M 248.5,136.5 C 301.197,136.9 348.864,152.4 391.5,183C 418.995,204.155 444.328,227.822 467.5,254C 426.027,305.454 374.027,342.121 311.5,364C 255.893,379.488 202.56,373.821 151.5,347C 108.708,323.741 72.3749,292.741 42.5,254C 83.9716,204.76 134.972,169.093 195.5,147C 212.989,141.869 230.656,138.369 248.5,136.5 Z"/></g>
<g><path style="opacity:0.956" fill="#fefffe" d="M 248.5,162.5 C 299.88,163.071 332.047,188.071 345,237.5C 350.525,271.927 340.691,301.094 315.5,325C 275.756,354.582 235.756,354.915 195.5,326C 164.863,296.847 156.03,262.014 169,221.5C 184.284,186.618 210.784,166.952 248.5,162.5 Z"/></g>
</svg>
