<?xml version="1.0" encoding="UTF-8"?>
<!DOCTYPE svg PUBLIC "-//W3C//DTD SVG 1.1//EN" "http://www.w3.org/Graphics/SVG/1.1/DTD/svg11.dtd">
<svg xmlns="http://www.w3.org/2000/svg" version="1.1" width="512px" height="512px" style="shape-rendering:geometricPrecision; text-rendering:geometricPrecision; image-rendering:optimizeQuality; fill-rule:evenodd; clip-rule:evenodd" xmlns:xlink="http://www.w3.org/1999/xlink">
<g><path style="opacity:0.936" fill="#fefffe" d="M 511.5,97.5 C 511.5,107.833 511.5,118.167 511.5,128.5C 508.248,149.913 499.248,168.58 484.5,184.5C 496.637,205.795 492.97,223.962 473.5,239C 468.209,241.762 462.709,243.929 457,245.5C 444.286,279.038 420.119,298.371 384.5,303.5C 400.752,309.428 416.752,316.261 432.5,324C 446.675,331.832 453.508,343.999 453,360.5C 455.498,380.146 457.664,399.813 459.5,419.5C 465.842,419.334 472.175,419.5 478.5,420C 485.873,422.58 490.04,427.746 491,435.5C 491.667,442.167 491.667,448.833 491,455.5C 488.046,467.072 480.546,472.405 468.5,471.5C 468.666,481.172 468.5,490.839 468,500.5C 467.065,503.102 465.232,504.602 462.5,505C 347.167,505.667 231.833,505.667 116.5,505C 108.933,500.42 108.599,495.42 115.5,490C 227.833,489.5 340.166,489.333 452.5,489.5C 452.5,483.5 452.5,477.5 452.5,471.5C 317.167,471.5 181.833,471.5 46.5,471.5C 46.5,477.5 46.5,483.5 46.5,489.5C 61.837,489.333 77.1703,489.5 92.5,490C 98.2591,493.892 98.9258,498.559 94.5,504C 93.5,504.333 92.5,504.667 91.5,505C 72.8333,505.667 54.1667,505.667 35.5,505C 33.3333,504.167 31.8333,502.667 31,500.5C 30.5002,490.839 30.3335,481.172 30.5,471.5C 13.4615,470.954 5.7948,462.121 7.5,445C 5.48527,428.193 12.8186,419.693 29.5,419.5C 31.3014,393.284 34.6348,367.284 39.5,341.5C 17.6767,326.337 4.34332,305.671 -0.5,279.5C -0.5,228.5 -0.5,177.5 -0.5,126.5C 9.10471,70.1718 40.7714,32.0051 94.5,12C 149.67,-2.95956 197.337,9.70711 237.5,50C 250.013,50.836 262.18,53.336 274,57.5C 285.173,44.3283 297.673,32.495 311.5,22C 340.624,3.07827 371.291,0.411604 403.5,14C 410.526,16.5952 417.026,20.0952 423,24.5C 425.685,31.4607 423.352,35.7941 416,37.5C 409.843,34.6845 403.676,31.8511 397.5,29C 369.555,16.7628 343.222,19.4295 318.5,37C 310.735,42.761 303.569,49.261 297,56.5C 292.15,63.009 286.984,69.1757 281.5,75C 278.833,75.6667 276.167,75.6667 273.5,75C 266.802,71.4103 259.802,69.577 252.5,69.5C 267.931,94.2198 275.098,121.22 274,150.5C 285.816,141.536 291.816,129.536 292,114.5C 296.006,109.834 300.506,109.334 305.5,113C 325.656,129.078 348.323,140.411 373.5,147C 400.366,154.096 427.7,157.763 455.5,158C 457.667,158.833 459.167,160.333 460,162.5C 460.499,168.157 460.666,173.824 460.5,179.5C 462.927,179.477 465.26,178.977 467.5,178C 491.832,154.672 500.665,126.505 494,93.5C 492.528,84.4203 489.861,75.7536 486,67.5C 477.373,70.3239 468.873,69.8239 460.5,66C 450.478,61.7544 441.645,55.9211 434,48.5C 432.671,39.4988 436.504,35.9988 445.5,38C 454.542,45.3743 464.709,50.541 476,53.5C 480.308,53.1758 484.141,51.6758 487.5,49C 490.303,48.245 492.97,48.5783 495.5,50C 499.262,55.3585 502.096,61.1918 504,67.5C 507.16,77.4737 509.66,87.4737 511.5,97.5 Z M 128.5,21.5 C 190.585,21.9411 232.085,51.2744 253,109.5C 254.846,116.065 256.18,122.731 257,129.5C 257.667,178.5 257.667,227.5 257,276.5C 253.191,298.791 241.858,316.125 223,328.5C 206.347,318.093 188.514,310.259 169.5,305C 169.043,304.586 168.709,304.086 168.5,303.5C 210.931,296.901 236.098,272.567 244,230.5C 244.667,208.167 244.667,185.833 244,163.5C 243.535,162.069 242.701,160.903 241.5,160C 227.254,155.435 215.42,147.268 206,135.5C 200.834,128.505 196.167,121.172 192,113.5C 189.347,110.806 186.18,109.973 182.5,111C 164.345,125.58 144.012,136.246 121.5,143C 93.4594,151.775 64.7927,157.275 35.5,159.5C 32.4647,159.434 30.2981,160.767 29,163.5C 28.3333,186.5 28.3333,209.5 29,232.5C 34.2099,263.08 51.0433,284.58 79.5,297C 87.7369,299.642 96.0702,301.809 104.5,303.5C 85.7617,309.947 67.5951,317.947 50,327.5C 27.4908,313.167 15.8241,292.5 15,265.5C 14.3333,224.833 14.3333,184.167 15,143.5C 17.6328,89.7103 43.4661,51.877 92.5,30C 104.295,25.6793 116.295,22.8459 128.5,21.5 Z M 182.5,131.5 C 191.241,144.077 201.575,155.244 213.5,165C 218.129,167.898 222.963,170.398 228,172.5C 228.929,193.537 228.596,214.537 227,235.5C 218.855,264.313 200.022,281.146 170.5,286C 147.833,286.667 125.167,286.667 102.5,286C 72.9851,281.153 54.1518,264.32 46,235.5C 44.5602,215.212 44.0602,194.879 44.5,174.5C 83.3128,171.297 120.646,162.13 156.5,147C 165.726,142.562 174.393,137.396 182.5,131.5 Z M 304.5,133.5 C 347.286,159.868 393.952,173.201 444.5,173.5C 444.927,193.874 444.427,214.207 443,234.5C 435.296,263.87 416.463,281.037 386.5,286C 363.5,286.667 340.5,286.667 317.5,286C 299.827,283.415 285.327,275.248 274,261.5C 273.333,230.833 273.333,200.167 274,169.5C 289.828,162.181 299.995,150.181 304.5,133.5 Z M 466.5,194.5 C 470.4,194.34 473.067,196.007 474.5,199.5C 477.271,212.293 472.771,221.626 461,227.5C 460.333,218.167 460.333,208.833 461,199.5C 462.107,196.887 463.94,195.22 466.5,194.5 Z M 272.5,283.5 C 286.62,294.557 302.62,301.223 320.5,303.5C 301.374,309.822 283.041,317.989 265.5,328C 257.788,333.924 253.621,341.757 253,351.5C 250.055,374.17 247.222,396.837 244.5,419.5C 241.565,393.423 237.898,367.423 233.5,341.5C 253.676,326.991 266.676,307.658 272.5,283.5 Z M 120.5,302.5 C 131.167,302.5 141.833,302.5 152.5,302.5C 154.617,315.625 149.284,323.625 136.5,326.5C 123.75,323.711 118.417,315.711 120.5,302.5 Z M 336.5,302.5 C 347.167,302.5 357.833,302.5 368.5,302.5C 370.582,315.892 365.082,323.892 352,326.5C 339.6,323.4 334.433,315.4 336.5,302.5 Z M 105.5,320.5 C 108.5,327.968 113.5,333.801 120.5,338C 116.652,342.016 112.652,345.849 108.5,349.5C 105.067,341.032 101.733,332.532 98.5,324C 100.858,322.724 103.192,321.558 105.5,320.5 Z M 321.5,320.5 C 324.5,327.968 329.5,333.801 336.5,338C 332.652,342.016 328.652,345.849 324.5,349.5C 321.067,341.032 317.733,332.532 314.5,324C 316.858,322.724 319.192,321.558 321.5,320.5 Z M 166.5,321.5 C 168.861,321.674 171.194,322.007 173.5,322.5C 171.46,331.91 168.293,340.91 164,349.5C 160.167,345.667 156.333,341.833 152.5,338C 158.913,334.023 163.58,328.523 166.5,321.5 Z M 382.5,321.5 C 384.806,321.993 387.139,322.326 389.5,322.5C 387.227,331.82 384.06,340.82 380,349.5C 376.167,345.667 372.333,341.833 368.5,338C 374.82,333.851 379.486,328.351 382.5,321.5 Z M 81.5,329.5 C 82.4959,329.414 83.3292,329.748 84,330.5C 88.3333,342.5 92.6667,354.5 97,366.5C 105.324,382.985 116.824,396.818 131.5,408C 133.034,408.923 134.701,409.423 136.5,409.5C 140.037,409.065 143.037,407.565 145.5,405C 156.21,395.373 165.377,384.539 173,372.5C 178.726,358.656 184.059,344.656 189,330.5C 193.467,330.549 197.634,332.049 201.5,335C 190.022,346.457 183.189,360.29 181,376.5C 179.935,382.811 179.602,389.144 180,395.5C 181.771,403.187 183.604,410.854 185.5,418.5C 152.833,419.833 120.167,419.833 87.5,418.5C 96.3503,392.708 93.8503,368.041 80,344.5C 77.5374,341.035 74.7041,337.869 71.5,335C 74.7672,332.871 78.1005,331.038 81.5,329.5 Z M 297.5,329.5 C 298.496,329.414 299.329,329.748 300,330.5C 304.987,346.793 311.32,362.46 319,377.5C 327.029,389.072 336.529,399.239 347.5,408C 349.034,408.923 350.701,409.423 352.5,409.5C 356.037,409.065 359.037,407.565 361.5,405C 373.951,393.893 384.118,381.059 392,366.5C 396.474,354.243 400.641,341.91 404.5,329.5C 409.062,330.781 413.396,332.614 417.5,335C 406.022,346.457 399.189,360.29 397,376.5C 395.78,383.133 395.447,389.8 396,396.5C 397.921,404.017 399.754,411.517 401.5,419C 368.835,419.5 336.168,419.667 303.5,419.5C 313.016,391.333 309.516,365 293,340.5C 291.167,338.667 289.333,336.833 287.5,335C 290.767,332.87 294.1,331.037 297.5,329.5 Z M 215.5,343.5 C 218.447,346.828 219.947,350.828 220,355.5C 223.123,376.776 225.623,398.109 227.5,419.5C 218.833,419.5 210.167,419.5 201.5,419.5C 199.978,409.745 197.978,400.078 195.5,390.5C 195.915,372.021 202.581,356.355 215.5,343.5 Z M 431.5,343.5 C 434.447,346.828 435.947,350.828 436,355.5C 438.905,376.476 441.405,397.476 443.5,418.5C 434.859,419.498 426.192,419.831 417.5,419.5C 415.63,409.484 413.63,399.484 411.5,389.5C 412.183,371.415 418.85,356.082 431.5,343.5 Z M 55.5,344.5 C 60.3463,346.503 64.1796,349.836 67,354.5C 73.3757,365.836 76.8757,378.002 77.5,391C 74.9217,400.392 72.9217,409.892 71.5,419.5C 62.8333,419.5 54.1667,419.5 45.5,419.5C 47.2819,394.241 50.6152,369.241 55.5,344.5 Z M 271.5,344.5 C 276.346,346.503 280.18,349.836 283,354.5C 290.72,367.487 293.72,381.487 292,396.5C 289.92,404.065 288.42,411.732 287.5,419.5C 278.833,419.5 270.167,419.5 261.5,419.5C 263.118,394.218 266.451,369.218 271.5,344.5 Z M 135.5,345.5 C 137.803,347.325 140.136,349.158 142.5,351C 140.65,353.018 138.65,354.851 136.5,356.5C 134.35,354.851 132.35,353.018 130.5,351C 132.373,349.296 134.04,347.463 135.5,345.5 Z M 351.5,345.5 C 353.812,347.146 355.812,349.146 357.5,351.5C 356.167,353.5 354.5,355.167 352.5,356.5C 350.35,354.851 348.35,353.018 346.5,351C 348.373,349.296 350.04,347.463 351.5,345.5 Z M 118.5,362.5 C 120.63,364.127 122.63,365.96 124.5,368C 123,369.5 121.5,371 120,372.5C 118.257,370.679 116.757,368.679 115.5,366.5C 116.524,365.148 117.524,363.815 118.5,362.5 Z M 153.5,362.5 C 154.962,363.458 156.295,364.624 157.5,366C 156,368.167 154.5,370.333 153,372.5C 151.5,371 150,369.5 148.5,368C 150.373,366.296 152.04,364.463 153.5,362.5 Z M 334.5,362.5 C 336.63,364.127 338.63,365.96 340.5,368C 339,369.5 337.5,371 336,372.5C 334.257,370.679 332.757,368.679 331.5,366.5C 332.524,365.148 333.524,363.815 334.5,362.5 Z M 369.5,362.5 C 370.962,363.458 372.295,364.624 373.5,366C 372,368.167 370.5,370.333 369,372.5C 367.5,371 366,369.5 364.5,368C 366.373,366.296 368.04,364.463 369.5,362.5 Z M 135.5,379.5 C 138.225,380.713 140.559,382.546 142.5,385C 140.65,387.018 138.65,388.851 136.5,390.5C 134.35,388.851 132.35,387.018 130.5,385C 132.373,383.296 134.04,381.463 135.5,379.5 Z M 351.5,379.5 C 354.225,380.713 356.559,382.546 358.5,385C 356.65,387.018 354.65,388.851 352.5,390.5C 349.891,389.557 347.891,387.89 346.5,385.5C 348.19,383.481 349.856,381.481 351.5,379.5 Z M 24.5,435.5 C 174.501,435.167 324.501,435.5 474.5,436.5C 475.618,441.78 475.784,447.113 475,452.5C 474.5,453.667 473.667,454.5 472.5,455C 323.5,455.667 174.5,455.667 25.5,455C 25,454.5 24.5,454 24,453.5C 23.2124,447.418 23.379,441.418 24.5,435.5 Z"/></g>
<g><path style="opacity:0.905" fill="#fefffe" d="M 304.5,171.5 C 307.559,171.797 310.059,173.13 312,175.5C 316.667,183.833 316.667,192.167 312,200.5C 307.026,205.934 302.359,205.601 298,199.5C 294.41,191.328 294.743,183.328 299,175.5C 300.5,173.531 302.333,172.198 304.5,171.5 Z"/></g>
<g><path style="opacity:0.899" fill="#fefffe" d="M 398.5,171.5 C 401.559,171.797 404.059,173.13 406,175.5C 410.662,183.851 410.662,192.184 406,200.5C 400.885,206.075 396.219,205.742 392,199.5C 388.667,191.833 388.667,184.167 392,176.5C 393.805,174.174 395.972,172.508 398.5,171.5 Z"/></g>
<g><path style="opacity:0.907" fill="#fefffe" d="M 80.5,179.5 C 94.3012,176.889 101.301,182.556 101.5,196.5C 101.15,200.754 99.9838,204.754 98,208.5C 92.1857,214.205 87.1857,213.538 83,206.5C 81.2749,201.855 80.7749,197.188 81.5,192.5C 73.4286,191.826 71.4286,187.993 75.5,181C 77.3817,180.802 79.0484,180.302 80.5,179.5 Z"/></g>
<g><path style="opacity:0.903" fill="#fefffe" d="M 179.5,179.5 C 185.565,179.261 191.565,179.761 197.5,181C 201.662,188.54 199.329,192.54 190.5,193C 191.624,198.396 190.791,203.563 188,208.5C 183.333,213.833 178.667,213.833 174,208.5C 169.675,199.728 170.008,191.061 175,182.5C 176.652,181.601 178.152,180.601 179.5,179.5 Z"/></g>
<g><path style="opacity:0.906" fill="#fefffe" d="M 336.5,233.5 C 338.199,233.34 339.866,233.506 341.5,234C 344.614,236.89 348.28,238.724 352.5,239.5C 356.491,238.348 360.158,236.515 363.5,234C 371.669,233.512 374.836,237.346 373,245.5C 359.671,258.456 346.005,258.789 332,246.5C 329.819,240.877 331.319,236.544 336.5,233.5 Z"/></g>
<g><path style="opacity:0.906" fill="#fefffe" d="M 119.5,234.5 C 122.187,234.336 124.854,234.503 127.5,235C 133.463,240.879 139.463,240.879 145.5,235C 155.049,233.543 158.549,237.376 156,246.5C 143.482,258.101 130.649,258.434 117.5,247.5C 114.547,242.6 115.214,238.267 119.5,234.5 Z"/></g>
</svg>
